<svg id="Layer_1" enable-background="new 0 0 512 512" height="512" viewBox="0 0 512 512" width="512" xmlns="http://www.w3.org/2000/svg"><g><g><path d="m406.95 289.133h27.883v33.133h-27.883z" fill="#f47f31"/><path d="m429.95 253.929v-80.762c0-9.15-7.417-16.567-16.567-16.567h-16.567-331.332c-18.608 0-33.634 15.34-33.121 34.064v63.265z" fill="#eb6a2f"/><g><path d="m234.15 225.867h-168.667v-202.367c0-8.837 7.164-16 16-16h17.134l16.566 3.5 16.567-3.5h83.4c8.837 0 16 7.163 16 16v25.417h3z" fill="#7da8ff"/><path d="m215.15 7.5h-23c8.837 0 16 7.163 16 16v202.367h23v-202.367c0-8.837-7.163-16-16-16z" fill="#7092ff"/><path d="m98.617 7.5h33.133v218.367h-33.133z" fill="#365e7d"/><path d="m190.017 90.333h-17.133c-4.418 0-8-3.582-8-8v-33.7c0-4.418 3.582-8 8-8h17.133c4.418 0 8 3.582 8 8v33.7c0 4.419-3.582 8-8 8z" fill="#ffdc67"/></g><g><path d="m396.817 225.867v-176.95c0-4.575-3.709-8.283-8.283-8.283h-149.1c-4.575 0-8.283 3.709-8.283 8.283v176.95h33.133l49.7-19.567 49.7 19.567z" fill="#95d6a4"/><path d="m363.683 225.867v-130.822c0-1.935-1.339-3.611-3.227-4.032-6.582-1.467-12.538-7.286-14.022-14.04-.413-1.882-2.102-3.206-4.028-3.206h-56.845c-1.935 0-3.611 1.339-4.032 3.227-1.467 6.582-7.286 12.538-14.04 14.022-1.882.413-3.206 2.102-3.206 4.028v130.823" fill="#ccf49f"/><ellipse cx="313.983" cy="173.167" fill="#95d6a4" rx="16.567" ry="16.567" transform="matrix(.23 -.973 .973 .23 73.311 438.965)"/><path d="m388.533 40.633h-23c4.575 0 8.283 3.708 8.283 8.283v176.95h23v-176.949c.001-4.575-3.708-8.284-8.283-8.284z" fill="#78c2a4"/></g><path d="m429.95 487.933c0 9.15-7.417 16.567-16.567 16.567h-347.9c-18.299 0-33.134-14.835-33.134-33.134v-281.633l.013.931c.495 18.047 15.756 32.202 33.81 32.202h347.211c9.15 0 16.567 7.417 16.567 16.567z" fill="#fc974d"/><path d="m413.384 222.867h-23c9.15 0 16.567 7.417 16.567 16.567v248.5c0 9.15-7.417 16.567-16.567 16.567h23c9.15 0 16.567-7.417 16.567-16.567v-248.5c-.001-9.15-7.418-16.567-16.567-16.567z" fill="#f47f31"/><path d="m140.317 471.367h-50.267c-4.418 0-8-3.582-8-8v-17.133c0-4.418 3.582-8 8-8h50.267c4.418 0 8 3.582 8 8v17.133c0 4.418-3.582 8-8 8z" fill="#ffdc67"/><path d="m429.95 289.133h16.566c18.299 0 33.133 14.834 33.133 33.133v66.267c0 18.299-14.834 33.133-33.133 33.133h-115.966c-9.15 0-16.567-7.417-16.567-16.567v-66.267c0-9.15 7.417-16.567 16.567-16.567h99.4z" fill="#f47f31"/><path d="m446.517 289.133h-16.567v.63c15.219 2.996 26.7 16.407 26.7 32.504v66.267c0 18.299-14.834 33.133-33.133 33.133h23c18.299 0 33.133-14.834 33.133-33.133v-66.267c0-18.299-14.834-33.134-33.133-33.134z" fill="#eb6a2f"/><ellipse cx="363.684" cy="371.967" fill="#ffdc67" rx="16.567" ry="16.567" transform="matrix(.34 -.94 .94 .34 -109.873 587.301)"/></g><g><path d="m155.817 463.367v-17.133c0-8.547-6.953-15.5-15.5-15.5h-50.267c-8.547 0-15.5 6.953-15.5 15.5v17.133c0 8.547 6.953 15.5 15.5 15.5h50.267c8.547 0 15.5-6.953 15.5-15.5zm-66.267 0v-17.133c0-.276.224-.5.5-.5h50.267c.276 0 .5.224.5.5v17.133c0 .276-.224.5-.5.5h-50.267c-.276 0-.5-.224-.5-.5z"/><path d="m363.684 347.9c-13.271 0-24.066 10.796-24.066 24.067s10.796 24.066 24.066 24.066 24.067-10.796 24.067-24.066-10.797-24.067-24.067-24.067zm0 33.133c-4.999 0-9.066-4.067-9.066-9.066 0-5 4.067-9.067 9.066-9.067 5 0 9.067 4.067 9.067 9.067-.001 4.999-4.068 9.066-9.067 9.066z"/><path d="m446.517 281.633h-9.066v-42.2-66.267c0-13.27-10.796-24.066-24.066-24.066h-9.067v-100.183c0-8.703-7.081-15.783-15.784-15.783h-149.1c-.264 0-.522.027-.783.04v-9.674c0-12.958-10.542-23.5-23.5-23.5h-133.668c-12.958 0-23.5 10.542-23.5 23.5v26.983c0 4.142 3.358 7.5 7.5 7.5s7.5-3.358 7.5-7.5v-26.983c0-4.687 3.813-8.5 8.5-8.5h9.633v200.367h-18.133v-134.884c0-4.142-3.358-7.5-7.5-7.5s-7.5 3.358-7.5 7.5v69.312c-8.184 1.515-15.685 5.499-21.625 11.605-7.393 7.599-11.438 17.529-11.496 28.09-.003.081-.012.161-.012.243v281.633c0 22.406 18.228 40.634 40.634 40.634h34.699c4.142 0 7.5-3.358 7.5-7.5s-3.358-7.5-7.5-7.5h-34.699c-14.134 0-25.634-11.499-25.634-25.634v-250.449c6.857 5.615 15.547 9.106 24.961 9.415.222.02 348.572.034 348.572.034 4.999 0 9.066 4.067 9.066 9.066v75.333h-91.9c-13.27 0-24.067 10.796-24.067 24.067v66.268c0 13.271 10.796 24.066 24.067 24.066h91.9v58.767c0 4.999-4.067 9.067-9.066 9.067h-283.2c-4.142 0-7.5 3.358-7.5 7.5s3.358 7.5 7.5 7.5h283.201c13.271 0 24.066-10.796 24.066-24.067v-58.767h9.066c22.405 0 40.633-18.228 40.633-40.633v-66.267c.001-22.405-18.227-40.633-40.632-40.633zm-406.657-91.174c-.192-6.992 2.383-13.597 7.249-18.599 3.067-3.152 6.792-5.41 10.874-6.651v48.858c-10.236-3.319-17.822-12.644-18.123-23.608zm199.573-142.326h149.1c.432 0 .784.352.784.783v166.45h-18.134v-120.321c0-5.492-3.741-10.161-9.096-11.353-3.831-.854-7.489-4.513-8.327-8.329-1.158-5.272-5.933-9.098-11.354-9.098h-56.845c-5.492 0-10.16 3.741-11.353 9.096-.854 3.832-4.513 7.489-8.329 8.328-5.271 1.158-9.098 5.933-9.098 11.354v120.323h-18.131v-166.449c0-.432.351-.784.783-.784zm116.75 167.234h-84.4v-117.786c7.457-2.591 13.713-8.847 16.314-16.314h51.772c2.591 7.457 8.846 13.713 16.314 16.314zm-132.533-191.867v25.417 166.45h-84.4v-200.367h75.9c4.687 0 8.5 3.813 8.5 8.5zm-117.533 191.867v-200.367h18.133v200.367zm307.267 0h-9.067v-51.267h9.067c4.999 0 9.066 4.067 9.066 9.066v43.979c-2.8-1.143-5.86-1.778-9.066-1.778zm58.766 173.166c0 14.134-11.499 25.633-25.633 25.633h-115.967c-4.999 0-9.067-4.067-9.067-9.066v-66.267c0-4.999 4.067-9.067 9.067-9.067h107.683c4.142 0 7.5-3.358 7.5-7.5s-3.358-7.5-7.5-7.5h-.783v-18.133h9.066c14.134 0 25.633 11.499 25.633 25.633v66.267z"/><path d="m313.983 149.1c-13.271 0-24.067 10.796-24.067 24.066s10.796 24.067 24.067 24.067 24.066-10.796 24.066-24.067c.001-13.27-10.795-24.066-24.066-24.066zm0 33.133c-5 0-9.067-4.067-9.067-9.067 0-4.999 4.067-9.066 9.067-9.066 4.999 0 9.066 4.067 9.066 9.066.001 5-4.067 9.067-9.066 9.067z"/><path d="m313.983 130.967c4.142 0 7.5-3.358 7.5-7.5v-16.567c0-4.142-3.358-7.5-7.5-7.5s-7.5 3.358-7.5 7.5v16.567c0 4.142 3.358 7.5 7.5 7.5z"/><path d="m172.883 97.834h17.133c8.547 0 15.5-6.953 15.5-15.5v-33.7c0-8.547-6.953-15.5-15.5-15.5h-17.133c-8.547 0-15.5 6.953-15.5 15.5v33.7c0 8.546 6.953 15.5 15.5 15.5zm-.5-49.201c0-.276.224-.5.5-.5h17.133c.276 0 .5.224.5.5v33.7c0 .276-.224.5-.5.5h-17.133c-.276 0-.5-.224-.5-.5z"/></g></g></svg>